#!OML:ASF E:\Steps\Project 1\Capture day 1\Session 2\Subject.ASF
:FULLY-SPECIFIED
:DEGREES
220
root 17.0528 16.384 20.507 -161.075 -2.94116 172.869
lowerback -22.8086 -1.54727 -8.02717
upperback 2.17917 0.275568 -1.61871
thorax 15.4414 -0.539142 2.79571
lowerneck -5.28014 1.94613 -0.457115
upperneck 14.3474 1.96709 1.82397
head 5.15512 0.867019 0.741952
rclavicle -3.94463e-015 1.36913e-014
rhumerus -35.0381 -19.7505 -76.6915
rradius 29.2349
rwrist -0.0277764
rhand -10.0593 -408.865
rfingers 7.12502
rthumb 15.9265 281.77
lclavicle -3.94463e-015 1.36913e-014
lhumerus -29.5373 4.96563 80.9206
lradius 20.6047
lwrist -6.58757
lhand -20.5303 -11.9162
lfingers 7.12502
lthumb 5.82785 17.9837
rfemur -17.6244 9.35331 17.8792
rtibia 13.8577
rfoot -22.773 -5.80998
rtoes -22.2769
lfemur -72.7652 -1.24426 -30.176
ltibia 95.8571
lfoot -10.0791 -5.06874
ltoes -24.4314
221
root 17.0488 16.3853 20.4814 -161.354 -3.00682 172.716
lowerback -22.6602 -1.59922 -8.0554
upperback 2.29159 0.213133 -1.62964
thorax 15.4986 -0.570927 2.77586
lowerneck -5.28487 2.00328 -0.460031
upperneck 14.4815 2.04284 1.75924
head 5.19721 0.895896 0.727513
rclavicle 2.04997e-015 -3.47873e-015
rhumerus -34.9065 -19.8352 -76.6247
rradius 29.1483
rwrist 0.130592
rhand -8.73167 -407.566
rfingers 7.12502
rthumb 17.2047 283.176
lclavicle 2.04997e-015 -3.47873e-015
lhumerus -29.3989 5.2715 80.7361
lradius 20.245
lwrist -6.74067
lhand -20.3165 -12.6818
lfingers 7.12502
lthumb 6.0343 17.2123
rfemur -17.1516 9.31474 17.7943
rtibia 13.8041
rfoot -22.8382 -5.98463
rtoes -23.0025
lfemur -73.2357 -1.16398 -30.2471
ltibia 95.7796
lfoot -10.2021 -4.86135
ltoes -24.9384
222
root 17.0536 16.3881 20.4489 -162.106 -4.08193 172.828
lowerback -21.9463 -1.86682 -7.89135
upperback 2.51408 -0.248838 -1.44857
thorax 15.398 -0.763918 2.73398
lowerneck -5.20051 2.15232 -0.587694
upperneck 14.4467 2.25561 1.79094
head 5.16741 0.995104 0.769752
rclavicle -1.13556e-014 2.8625e-014
rhumerus -34.8107 -19.83 -76.5558
rradius 29.105
rwrist 0.0367378
rhand -9.85482 -408.133
rfingers 7.12502
rthumb 16.1234 282.518
lclavicle -1.13556e-014 2.8625e-014
lhumerus -29.412 5.38226 80.6718
lradius 20.0469
lwrist -6.61519
lhand -20.3141 -13.1013
lfingers 7.12502
lthumb 6.03662 16.7927
rfemur -15.5385 9.29619 18.3123
rtibia 12.9296
rfoot -22.7691 -6.88889
rtoes -22.9383
lfemur -73.2784 -1.71174 -29.6879
ltibia 95.7895
lfoot -10.1528 -4.4042
ltoes -29.7233
223
root 17.053 16.3934 20.4183 -162.567 -4.34878 172.716
lowerback -21.57 -1.92418 -7.96115
upperback 2.61672 -0.337767 -1.39985
thorax 15.3112 -0.808871 2.80184
lowerneck -5.09033 2.20124 -0.835966
upperneck 14.3384 2.31846 2.03086
head 5.10768 1.02892 0.886548
rclavicle -1.01877e-015 2.10712e-014
rhumerus -34.7827 -19.6922 -76.5665
rradius 29.1907
rwrist -0.146756
rhand -10.3081 -408.714
rfingers 7.12502
rthumb 15.6869 281.901
lclavicle -1.01877e-015 2.10712e-014
lhumerus -29.5833 5.34903 80.6825
lradius 20.073
lwrist -6.43307
lhand -20.4805 -12.9588
lfingers 7.12502
lthumb 5.87588 16.9397
rfemur -14.7797 9.40609 18.3379
rtibia 12.7827
rfoot -22.8225 -7.31817
rtoes -23.0244
lfemur -73.6279 -1.71009 -29.5552
ltibia 95.5637
lfoot -10.1208 -4.00881
ltoes -28.3322
224
root 17.0473 16.3898 20.3918 -162.787 -4.36304 172.642
lowerback -21.4085 -1.92392 -7.89029
upperback 2.62246 -0.36977 -1.41334
thorax 15.2241 -0.813132 2.73695
lowerneck -4.94799 2.17608 -0.965998
upperneck 14.4237 2.25166 2.22798
head 5.10636 0.99468 0.963735
rclavicle -1.74185e-014 -1.12313e-014
rhumerus -34.8817 -19.3902 -76.7064
rradius 29.4748
rwrist -0.223335
rhand -10.1963 -410.239
rfingers 7.12502
rthumb 15.7946 280.385
lclavicle -1.74185e-014 -1.12313e-014
lhumerus -29.7825 5.32887 80.5929
lradius 20.0576
lwrist -6.50835
lhand -20.6188 -12.5279
lfingers 7.12502
lthumb 5.74244 17.3743
rfemur -14.5706 9.39528 18.3126
rtibia 13.0843
rfoot -23.0328 -7.40409
rtoes -23.425
lfemur -74.2843 -1.6185 -29.4152
ltibia 95.2705
lfoot -10.1607 -3.68405
ltoes -28.9767
225
root 17.0478 16.3868 20.3661 -162.966 -4.42804 172.511
lowerback -21.2496 -2.00012 -7.91434
upperback 2.60267 -0.480418 -1.44766
thorax 15.1183 -0.859982 2.67521
lowerneck -4.77796 2.17459 -0.73431
upperneck 14.7283 2.22956 1.92424
head 5.179 0.962207 0.829646
rclavicle -8.32411e-015 5.56597e-015
rhumerus -35.0608 -19.0837 -76.8562
rradius 29.7717
rwrist -0.373614
rhand -10.091 -410.492
rfingers 7.12502
rthumb 15.8961 280.14
lclavicle -8.32411e-015 5.56597e-015
lhumerus -29.9723 5.47105 80.3503
lradius 19.9791
lwrist -6.79454
lhand -20.7314 -11.9395
lfingers 7.12502
lthumb 5.63371 17.9656
rfemur -14.3497 9.37824 18.2579
rtibia 13.3609
rfoot -23.2924 -7.43474
rtoes -22.9269
lfemur -74.9091 -1.63257 -29.2025
ltibia 94.866
lfoot -10.0302 -3.627
ltoes -28.3318
